<?xml version="1.0" encoding="utf-8"?>
<!-- Generator: Adobe Illustrator 22.0.1, SVG Export Plug-In . SVG Version: 6.00 Build 0)  -->
<svg version="1.1" id="Layer_1" xmlns="http://www.w3.org/2000/svg" xmlns:xlink="http://www.w3.org/1999/xlink" x="0px" y="0px"
	 viewBox="0 0 600 106.7" style="enable-background:new 0 0 600 106.7;" xml:space="preserve">
<style type="text/css">
	.st0{fill:#FFFFFF;}
</style>
<g>
	<path class="st0" d="M507.4,59.7c-7,1.8-10.5,0.6-12.9-4.3c-2.4-5.1-1.2-10,1.1-14.7c2.1-4.3,4.6-8.5,6.9-12.7
		c-3.3,3.8-6.1,8-8.1,12.4c-2.7,6.2-4.3,12.6,0.8,18.6C499.2,63.6,503.4,63.9,507.4,59.7c6.8-3.2,10.5-9,14-15
		c-0.3-0.3-0.6-0.6-0.9-0.9c-2.1,1.3-4.2,2.7-7.4,4.7c2.4,0.2,3.2,0.3,4.5,0.4C513.9,52.7,510.7,56.2,507.4,59.7z M128.2,60.8
		c-2.7,0.8-5.4,1.6-8.3,2.5c-0.6,3.7-1.3,7.8-2,12c2.2-1.8,3.6-3.8,4.9-5.8c2.5-4,5.6-6.3,10.7-6c5.5,0.4,11.1,0.1,17.2,0.1
		c-1.1-5.3-4.9-6.9-8.3-7.7c-5.5-1.4-10.4,0.8-14.3,5L128.2,60.8z M324.3,34.7c-8.6,8.3-10.7,19.7-13.8,30.6
		c2.6-6.5,5.2-12.9,7.8-19.5c2.9,1.7,5.2,3.1,7.7,4.6c-0.6,2.8-1.2,5.4-1.8,7.9c0.4,0,0.9,0.1,1.3,0.1c0.7-2.3,1.4-4.6,2-6.7
		c9.9,0.4,15.7-2.9,17.3-9.4c2.4-2.3,4.7-4.7,6.7-6.6c0,10.1,0,20.4,0,30.7c0.6,0,1.2,0,1.8,0c0-12,0-24.1,0-36.5
		c-2.9,4.3-5.7,8.4-8.4,12.4c-2.1,2.1-3.8,4.9-6.3,6.1c-2.8,1.4-6.3,1.3-9.5,1.8c-0.3-2.5-0.7-5-0.8-7.6c-0.1-3.3,0-6.5,0-9.8
		c-0.5-0.1-1-0.1-1.5-0.2c-0.8,0.7-1.7,1.4-2.5,2.1L324.3,34.7z M156.3,58.5c-0.2,0.3-0.4,0.6-0.6,0.9c1.1,0.7,2.1,1.8,3.2,2.1
		c4.7,1.2,4.5,4,3.4,7.9c-1.9,7.2-3.4,14.5-4.8,21.8c-0.5,2.4-0.3,4.8-0.4,7.2c0.5,0,0.9,0.1,1.4,0.1c2.1-11.2,4.2-22.3,6.6-35
		c6.8,5.6,12.4,10.3,18,14.9c0.3-0.3,0.6-0.7,0.9-1c-4.7-3.9-9.4-7.8-14-11.9c-1.4-1.3-3.8-3.3-3.5-4.4c0.8-2.9,0.1-7.2,5.2-7.8
		c2.4-0.3,4.5-2.5,6.8-3.9c-0.2-0.3-0.4-0.6-0.6-0.9c-2.6,1.1-5.2,2.3-9,3.9c2.1-6.8,3.8-11.9,5.2-17.1c1.4-5.1,2.5-10.3,3.6-15.4
		c2.1-9.8,2-12-0.5-15.1c0.4,20.1-7.5,38.3-13.6,57C161.1,60.6,158.7,59.6,156.3,58.5z M578.2,20.2c2.7,14.1-3,26.7-4,39.9
		c-4.3,0.5-8.3,0.9-12.4,1.3c7.1,3.9,26.2,3.9,31.5,0.8c-3,0-5.7,0-9,0c4.4-1.2,8.2-2.3,12-3.3c-0.1-0.6-0.2-1.2-0.3-1.8
		c-6.3,1-12.6,2-20.8,3.3c3.1-14.2,5.9-26.9,8.8-39.8C582.4,20.5,579.9,20.3,578.2,20.2z M28.3,102.2c0.5,0,1,0,1.6,0.1
		c0.6-8.7,0.3-17.7,1.9-26.2c3.9-20.1,8.8-40,13.3-60c0.7-3,1.1-6,1.6-9c-1.5,0.3-1.9,0.8-2.1,1.4c-3,10.3-5.7,20.7-9.1,30.8
		c-2.2,6.6-5.4,12.8-8.3,19.4c1.3-0.3,3.5-0.9,5.9-1.4c-1.1,8-2.4,15.3-3.2,22.7C29.1,87.4,28.8,94.8,28.3,102.2z M85.5,68.8
		c-0.4-1.9-0.8-3.6-1.3-5.4c-1-4.2-1.7-8.4-3.2-12.4c-2-5.4-8.1-6.3-11.6-2c6.1-3.3,10-1.8,11.8,5.5c1.6,6.2,2.1,12.7,3.1,19.1
		c0.2,1.3,0.7,2.5,1,3.7c0.3,0,0.7-0.1,1-0.1c1-5.5,2-11.1,3.1-16.6c0.4,0,0.7,0,1.1,0c1.9,7.7,3.7,15.3,5.6,23
		c0.4-0.1,0.9-0.2,1.3-0.4c-1.3-9.2-3.3-18.2-6.9-26.9c-0.5,0-1,0.1-1.4,0.1C88,60.3,86.8,64.2,85.5,68.8z M427.3,31.1
		c-10,1.3-19.1,2.4-28.9,3.6c-0.6,4-1.3,8.8-2.2,14.7c7.1-3.6,4.3-9.1,4.9-13c7.9-1.1,15.5-2.2,23.5-3.4c-0.8,5.5-1.5,11.1-2.3,16.7
		c0.6,0.1,1.3,0.1,1.9,0.2C425.2,43.7,426.3,37.3,427.3,31.1z M295.2,33.7c-2.1,3.9-5.1,6.9-4.4,8.6c2.2,5.8-0.5,10.8-1.2,16.1
		c-0.7,6-1.7,12-2.6,17.9c2.5-7.4,4.3-15,5-22.6c0.7-8.1,4.2-12.9,11.7-16.4c5.3-2.5,9.7-7.3,14-11.7c3.4-3.5,3-6.9,0.2-10.2
		c1,10.8-8.5,20.6-23.2,23.8C294.8,37.7,294.9,36.4,295.2,33.7z M482.5,7.5c-0.6-0.2-1.3-0.5-1.9-0.7c-0.9,3-1.8,6.1-2.8,9
		c-2.3,6.7-4.5,13.5-7.1,20.1c-2,4.9-4.1,5.3-6.8,1c-2.5-3.9-4.4-8.4-5.6-12.9c-1.2-4.5-1.1-9.4-1.6-14c-0.9,9-1.2,18,3.9,25.9
		c1.5,2.3,4.3,5.3,6.4,5.2c2-0.1,4.5-3.5,5.5-6c2.7-6.5,4.6-13.3,6.9-19.9C480.3,12.6,481.4,10,482.5,7.5z M375.8,42.1
		c2.6,1.9,5.3,3.9,8.1,5.9c1.9-4.4,3.3-7.7,4.7-11c-0.2-0.2-0.5-0.4-0.7-0.5c-1.8,2.8-3.7,5.6-6.3,9.6c-2.2-4.4-4.3-8.5-6.9-13.6
		c-2,7.1-3.7,13.7-5.5,20.2c0.8,0.3,1.6,0.5,2.3,0.8C373,49.6,374.4,45.8,375.8,42.1z M257.7,64c-14,0-27.9,0-42.3,0
		C229.6,68.7,243.7,66.4,257.7,64z M441.3,57.9c-1.6-1.6-3.1-2.5-3.1-3.4c0-7.1,0.3-14.3,0.4-20.1c-0.4,1.5-1.8,4.3-2.1,7.3
		c-0.4,4.7-0.3,9.5-0.1,14.2c0.1,1.1,1.7,2.4,2.8,2.9C440,59.1,441.3,57.9,441.3,57.9z M63.6,60.1c-0.7-0.1-1.3-0.1-2-0.2
		c-1.4,8-2.8,16-4.2,23.9c0.6,0.1,1.1,0.2,1.7,0.3C60.6,76.2,62.1,68.1,63.6,60.1z M125.2,42.6c0.4,0,0.9,0.1,1.3,0.1
		c0.7-7.9,1.4-15.7,2.1-23.6c-0.5,0-1.1-0.1-1.6-0.1C126.3,26.8,125.7,34.7,125.2,42.6z M563.3,32.5c-0.5-0.3-0.9-0.7-1.4-1
		c-3.3,5-6.7,10-10,15.1c0.4,0.2,0.7,0.5,1.1,0.7C556.4,42.4,559.9,37.4,563.3,32.5z M454.3,10.2c-0.5-0.4-0.9-0.7-1.4-1.1
		c-3.2,4.8-6.5,9.6-9.7,14.3c0.3,0.2,0.6,0.4,0.9,0.6C447.5,19.5,450.9,14.9,454.3,10.2z M542,57.9c0-0.4,0-0.8,0-1.2
		c-4.2,0-8.4,0-12.5,0c0,0.4,0,0.8,0,1.2C533.7,57.9,537.8,57.9,542,57.9z M15.5,86.9c-0.6-0.6-1.3-1.2-1.9-1.9
		c-0.9,1-1.7,2.1-2.8,2.8c-1.6,1.1-3.5,2-5.2,2.9c-0.1-1.8-0.2-3.5-0.3-5.3c-0.3,0-0.6-0.1-0.9-0.1c-0.1,2.1-0.3,4.1-0.4,6.2
		c2-0.5,4.1-0.8,6-1.6C12,89.2,13.7,88,15.5,86.9z M565.3,39.5c-0.5-0.4-1-0.8-1.5-1.1c-2.4,3.6-4.7,7.2-7.1,10.8
		c0.4,0.3,0.7,0.5,1.1,0.8C560.2,46.4,562.8,43,565.3,39.5z"/>
	<path d="M156.3,58.5c2.4,1,4.7,2,7.4,3.2c6.1-18.7,14-36.8,13.6-57c2.5,3.1,2.6,5.3,0.5,15.1c-1.1,5.2-2.3,10.3-3.6,15.4
		c-1.4,5.2-3.1,10.4-5.2,17.1c3.7-1.6,6.3-2.7,9-3.9c0.2,0.3,0.4,0.6,0.6,0.9c-2.3,1.3-4.4,3.6-6.8,3.9c-5.2,0.6-4.4,4.9-5.2,7.8
		c-0.3,1.1,2.1,3.1,3.5,4.4c4.6,4,9.3,7.9,14,11.9c-0.3,0.3-0.6,0.7-0.9,1c-5.6-4.6-11.1-9.2-18-14.9c-2.4,12.7-4.5,23.8-6.6,35
		c-0.5,0-0.9-0.1-1.4-0.1c0.1-2.4-0.1-4.9,0.4-7.2c1.5-7.3,3-14.6,4.8-21.8c1-3.8,1.2-6.7-3.4-7.9c-1.2-0.3-2.2-1.4-3.2-2.1
		C156,59.1,156.1,58.8,156.3,58.5z"/>
	<path d="M578.2,20.2c1.7,0.1,4.3,0.4,5.9,0.5c-2.9,12.9-5.7,25.6-8.8,39.8c8.1-1.3,14.4-2.3,20.8-3.3c0.1,0.6,0.2,1.2,0.3,1.8
		c-3.8,1.1-7.6,2.1-12,3.3c3.3,0,6,0,9,0c-5.3,3.1-24.4,3.1-31.5-0.8c4.1-0.4,8.1-0.9,12.4-1.3C575.1,46.8,580.9,34.2,578.2,20.2z"
		/>
	<path d="M28.3,102.2c0.5-7.4,0.7-14.8,1.5-22.2c0.8-7.4,2-14.7,3.2-22.7c-2.4,0.6-4.6,1.1-5.9,1.4c2.9-6.6,6.1-12.9,8.3-19.4
		c3.4-10.2,6.1-20.6,9.1-30.8c0.2-0.6,0.6-1.1,2.1-1.4c-0.5,3-0.9,6-1.6,9c-4.5,20-9.4,39.9-13.3,60c-1.7,8.5-1.3,17.5-1.9,26.2
		C29.4,102.3,28.8,102.3,28.3,102.2z M30.9,54.4c3.3,0.5,4.9-3.4,4.7-10.6C34,47.5,32.5,50.8,30.9,54.4z"/>
	<path d="M85.5,68.8c1.3-4.5,2.5-8.5,3.6-12.4c0.5,0,1-0.1,1.4-0.1c3.6,8.6,5.6,17.7,6.9,26.9c-0.4,0.1-0.9,0.2-1.3,0.4
		c-1.9-7.7-3.7-15.3-5.6-23c-0.4,0-0.7,0-1.1,0c-1,5.5-2,11.1-3.1,16.6c-0.3,0-0.7,0.1-1,0.1c-0.4-1.2-0.8-2.4-1-3.7
		c-1-6.4-1.6-12.8-3.1-19.1c-1.8-7.3-5.7-8.8-11.8-5.5c3.5-4.3,9.6-3.4,11.6,2c1.5,4,2.2,8.3,3.2,12.4
		C84.7,65.1,85.1,66.8,85.5,68.8z"/>
	<path d="M427.3,31.1c-1,6.3-2.1,12.6-3.1,18.9c-0.6-0.1-1.3-0.1-1.9-0.2c0.8-5.6,1.5-11.2,2.3-16.7c-8,1.2-15.6,2.2-23.5,3.4
		c-0.6,3.9,2.3,9.3-4.9,13c0.9-6,1.6-10.8,2.2-14.7C408.2,33.5,417.3,32.3,427.3,31.1z"/>
	<path d="M344.8,42.2c-1.6,6.6-7.3,9.9-17.2,9.4c-0.6,2.2-1.3,4.4-2,6.7c-0.4,0-0.9-0.1-1.3-0.1c0.6-2.6,1.2-5.2,1.8-7.9
		c-2.5-1.5-4.8-2.9-7.7-4.6c-2.6,6.5-5.2,13-7.8,19.5c3.1-10.9,5.1-22.2,13.8-30.6c-1.5,3-2.9,6.1-4.4,9.1c2,1.5,3.8,2.9,6.7,5.1
		c0.3-4.8,0.6-8.6,0.6-12.4c0-0.6-2-1.1-3.1-1.7c0.8-0.7,1.7-1.4,2.5-2.1c0.5,0.1,1,0.1,1.5,0.2c0,3.3-0.1,6.5,0,9.8
		c0.1,2.5,0.5,5.1,0.8,7.6c3.2-0.5,6.7-0.5,9.5-1.8c2.5-1.2,4.3-4,6.3-6.1L344.8,42.2z"/>
	<path d="M295.2,33.7c-0.3,2.7-0.4,4-0.5,5.4c14.7-3.2,24.1-13,23.2-23.8c2.8,3.4,3.2,6.7-0.2,10.2c-4.2,4.4-8.6,9.2-14,11.7
		c-7.5,3.5-11,8.3-11.7,16.4c-0.6,7.7-2.5,15.2-5,22.6c0.9-6,1.9-11.9,2.6-17.9c0.6-5.3,3.4-10.3,1.2-16.1
		C290.1,40.6,293.1,37.6,295.2,33.7z"/>
	<path d="M128.1,60.9c3.8-4.3,8.7-6.4,14.3-5c3.4,0.8,7.2,2.4,8.3,7.7c-6.1,0-11.7,0.3-17.2-0.1c-5.1-0.4-8.2,2-10.7,6
		c-1.3,2.1-2.7,4-4.9,5.8c0.7-4.1,1.4-8.3,2-12c2.9-0.9,5.6-1.7,8.3-2.6c0.7,0.4,1.3,1.2,2,1.2c5.9,0.1,11.7,0.1,18.9,0.1
		c-4.3-4.8-8.1-6.5-12.8-4.8C133.4,58.2,130.7,59.7,128.1,60.9z"/>
	<path d="M482.5,7.5c-1,2.6-2.2,5.1-3.1,7.7c-2.3,6.6-4.2,13.4-6.9,19.9c-1,2.5-3.6,5.9-5.5,6c-2.1,0.1-4.9-2.9-6.4-5.2
		c-5.1-7.9-4.8-16.9-3.9-25.9c0.5,4.7,0.4,9.5,1.6,14c1.2,4.5,3.1,9,5.6,12.9c2.7,4.2,4.8,3.8,6.8-1c2.6-6.6,4.8-13.4,7.1-20.1
		c1-3,1.9-6,2.8-9C481.2,7,481.8,7.2,482.5,7.5z"/>
	<path d="M375.8,42.1c-1.4,3.7-2.8,7.5-4.3,11.4c-0.8-0.3-1.6-0.5-2.3-0.8c1.8-6.5,3.6-13.1,5.5-20.2c2.6,5.1,4.7,9.3,6.9,13.6
		c2.6-4,4.4-6.8,6.3-9.6c0.2,0.2,0.5,0.4,0.7,0.5c-1.4,3.3-2.8,6.6-4.7,11C381.1,46,378.4,44,375.8,42.1z"/>
	<path d="M344.9,42.3c2.7-4.1,5.5-8.1,8.4-12.4c0,12.4,0,24.5,0,36.5c-0.6,0-1.2,0-1.8,0c0-10.3,0-20.7,0-30.7
		C349.6,37.6,347.2,39.9,344.9,42.3C344.8,42.2,344.9,42.3,344.9,42.3z"/>
	<path d="M257.7,64c-14.1,2.4-28.1,4.7-42.3,0C229.8,64,243.8,64,257.7,64z"/>
	<path d="M507.3,59.6c-3.9,4.3-8.1,4-12-0.6c-5.1-6-3.5-12.4-0.8-18.6c2-4.5,4.7-8.6,8.1-12.4c-2.3,4.2-4.7,8.4-6.9,12.7
		c-2.3,4.7-3.5,9.6-1.1,14.7C496.8,60.3,500.4,61.5,507.3,59.6L507.3,59.6z"/>
	<path d="M441.3,57.9c-0.1,0-1.3,1.2-2,1c-1.2-0.5-2.8-1.9-2.8-2.9c-0.3-4.7-0.4-9.5,0.1-14.2c0.3-3,1.6-5.8,2.1-7.3
		c-0.2,5.8-0.4,12.9-0.4,20.1C438.2,55.4,439.8,56.3,441.3,57.9z"/>
	<path d="M63.6,60.1c-1.5,8-3,16-4.5,24.1c-0.6-0.1-1.1-0.2-1.7-0.3c1.4-8,2.8-16,4.2-23.9C62.3,60,62.9,60,63.6,60.1z"/>
	<path d="M507.4,59.7c3.3-3.5,6.6-7,10.2-10.9c-1.2-0.1-2.1-0.2-4.5-0.4c3.2-2,5.3-3.4,7.4-4.7c0.3,0.3,0.6,0.6,0.9,0.9
		C517.9,50.7,514.2,56.6,507.4,59.7C507.3,59.6,507.4,59.7,507.4,59.7z"/>
	<path d="M125.2,42.6c0.6-7.9,1.2-15.7,1.8-23.6c0.5,0,1.1,0.1,1.6,0.1c-0.7,7.9-1.4,15.7-2.1,23.6C126,42.6,125.6,42.6,125.2,42.6z
		"/>
	<path d="M563.3,32.5c-3.4,4.9-6.9,9.9-10.3,14.8c-0.4-0.2-0.7-0.5-1.1-0.7c3.3-5,6.7-10,10-15.1C562.4,31.8,562.8,32.2,563.3,32.5z
		"/>
	<path d="M454.3,10.2c-3.4,4.6-6.8,9.3-10.2,13.9c-0.3-0.2-0.6-0.4-0.9-0.6c3.2-4.8,6.5-9.6,9.7-14.3
		C453.4,9.5,453.9,9.9,454.3,10.2z"/>
	<path d="M542,57.9c-4.2,0-8.3,0-12.5,0c0-0.4,0-0.8,0-1.2c4.2,0,8.4,0,12.5,0C542,57.1,542,57.5,542,57.9z"/>
	<path d="M15.5,86.9c-1.8,1-3.5,2.3-5.4,3.1c-1.9,0.8-4,1.1-6,1.6c0.1-2.1,0.3-4.1,0.4-6.2c0.3,0,0.6,0.1,0.9,0.1
		c0.1,1.8,0.2,3.5,0.3,5.3c1.7-1,3.6-1.8,5.2-2.9c1.1-0.7,1.8-1.9,2.8-2.8C14.2,85.7,14.9,86.3,15.5,86.9z"/>
	<path d="M565.3,39.5c-2.5,3.5-5.1,7-7.6,10.4c-0.4-0.3-0.7-0.5-1.1-0.8c2.4-3.6,4.7-7.2,7.1-10.8C564.3,38.7,564.8,39.1,565.3,39.5
		z"/>
	<path class="st0" d="M30.9,54.4c1.6-3.7,3.1-6.9,4.7-10.6C35.8,51,34.2,54.9,30.9,54.4z"/>
	<path class="st0" d="M324.2,34.8c1.1,0.6,3.1,1.1,3.1,1.7c0.1,3.8-0.3,7.6-0.6,12.4c-2.9-2.2-4.7-3.5-6.7-5.1c1.5-3,2.9-6,4.4-9.1
		C324.3,34.7,324.2,34.8,324.2,34.8z"/>
	<path class="st0" d="M128.1,60.9c2.7-1.2,5.3-2.7,8.1-3.7c4.7-1.7,8.6,0,12.8,4.8c-7.1,0-13,0-18.9-0.1c-0.7,0-1.3-0.8-2-1.2
		C128.2,60.8,128.1,60.9,128.1,60.9z"/>
</g>
</svg>
